<?xml version="1.0" encoding="utf-8"?>
<!-- Generator: Adobe Illustrator 26.1.0, SVG Export Plug-In . SVG Version: 6.00 Build 0)  -->
<svg version="1.1" id="Capa_1" xmlns="http://www.w3.org/2000/svg" xmlns:xlink="http://www.w3.org/1999/xlink" x="0px" y="0px"
	 viewBox="0 0 1920 1080" style="enable-background:new 0 0 1920 1080;" xml:space="preserve">
<style type="text/css">
	.st0{clip-path:url(#SVGID_00000158734958997097345380000013227525863155175868_);fill:#A3A845;}
	.st1{clip-path:url(#SVGID_00000158734958997097345380000013227525863155175868_);}
	.st2{fill:#B0B1AE;}
	.st3{fill:#F9F7F7;}
	.st4{fill:#E0E6E3;}
	.st5{fill:#E0E3E1;}
	.st6{fill:#B2B2B0;}
	.st7{fill:#ADAEAB;}
	.st8{fill:#E0E2E0;}
	.st9{fill:#E1E8E4;}
	.st10{fill:#E1E5E3;}
	.st11{fill:#E1E7E4;}
	.st12{fill:#ADAEAC;}
	.st13{fill:#E0E5E3;}
	.st14{fill:#E0E5E2;}
	.st15{fill:#E0E1DF;}
	.st16{fill:#E1E6E3;}
	.st17{fill:#E2E8E5;}
	.st18{fill:#E0E4E2;}
	.st19{fill:#E0DFDF;}
	.st20{fill:#E0E2E1;}
	.st21{fill:#E1E8E5;}
	.st22{fill:#DAD9D8;}
	.st23{fill:#E1E4E2;}
	.st24{fill:#E0E1E0;}
	.st25{fill:#EDEDEC;}
	.st26{fill:#DFDDDC;}
	.st27{fill:#ECEAEA;}
	.st28{fill:#B5B6B4;}
	.st29{fill:#E1E9E6;}
	.st30{fill:#E0E0DF;}
	.st31{fill:#E1E9E5;}
	.st32{fill:#EFEFEE;}
	.st33{fill:#B0B4B0;}
	.st34{fill:#E1EAE6;}
	.st35{fill:#DFDCDC;}
	.st36{fill:#E0E7E4;}
	.st37{fill:#B2B4B1;}
	.st38{fill:#CEDFE7;}
	.st39{fill:#D2DFE5;}
	.st40{fill:#D8DBE0;}
	.st41{fill:#AFB1AE;}
	.st42{fill:#AAAAA8;}
	.st43{fill:#E0DFDE;}
	.st44{fill:#B3B4B3;}
	.st45{fill:#ADADAB;}
	.st46{fill:#DDDDDE;}
	.st47{fill:#E3E2E2;}
	.st48{fill:#F1EEEE;}
	.st49{fill:#ACABA9;}
	.st50{fill:#DFDEDD;}
	.st51{fill:#B2B3B1;}
	.st52{fill:#B0B4B1;}
	.st53{fill:#F4F2F2;}
	
		.st54{clip-path:url(#SVGID_00000158734958997097345380000013227525863155175868_);fill:none;stroke:#000000;stroke-width:6;stroke-miterlimit:10;}
	.st55{fill:none;stroke:#000000;stroke-width:6;stroke-miterlimit:10;}
	.st56{fill:none;stroke:#FF0000;stroke-width:6;stroke-miterlimit:10;}
	.st57{fill:none;stroke:#FF0000;stroke-width:6;stroke-miterlimit:10;stroke-dasharray:11.9184,11.9184;}
	.st58{fill:none;stroke:#FF0000;stroke-width:6;stroke-miterlimit:10;stroke-dasharray:12,12;}
	.st59{fill:#FF0000;}
	.st60{font-family:'MyriadPro-Regular';}
	.st61{font-size:39px;}
	.st62{opacity:0.6;clip-path:url(#SVGID_00000158734958997097345380000013227525863155175868_);fill:#FF0043;}
</style>
<g>
	<defs>
		<rect id="SVGID_1_" y="3" width="1920" height="1076"/>
	</defs>
	<clipPath id="SVGID_00000152265788399657090290000009370152946554832278_">
		<use xlink:href="#SVGID_1_"  style="overflow:visible;"/>
	</clipPath>
	<polygon style="clip-path:url(#SVGID_00000152265788399657090290000009370152946554832278_);fill:#A3A845;" points="1227.67,2.6 
		1225.06,39.87 1185.96,77.94 1168.15,111.82 1196.29,148.36 1187.28,187.63 1141.09,291.97 1117.02,335.24 1119.42,400.57 
		1117.02,460.63 1072.72,505.74 992.28,513.98 959.38,567.47 955.51,600.26 1009.6,618.35 1058.39,623.87 1079.23,645.19 
		1074.18,675.42 1063.59,700.64 1055.25,739.48 1071.34,763.68 1105.42,795.85 1082.94,828.16 1090.38,845.82 1098.06,890.73 
		1075.39,903.44 1086.11,948.11 1104,976.92 1102.2,1038.83 1144.73,1056.72 1190.13,1109.99 2070.65,1109.99 1956.94,-75.81 	"/>
	<g style="clip-path:url(#SVGID_00000152265788399657090290000009370152946554832278_);">
		<path class="st2" d="M1120.49,1068.51c-2.75-0.21-5.49-0.42-8.24-0.62c-14.66-8.54-19.99-21.3-11.24-40.87
			c10.86-24.28,3.61-44.51-11.37-61.68c-10.78-12.36-8.05-28.62-17.5-40.37c-3.91-5.96-6.5-11.98-0.68-18.27
			c6.74-3.15,10.87,2.74,16.15,4.69c0.68,7.64-0.74,16.15,8.44,20.26c6.05,6.71,6.82,16.3,12.64,23.14
			c0.77,8.35,8.43,13.41,10.28,21.27c2.32,14.64,11.68,27.36,11.79,42.61c-13.44,26.28-13.27,25.91,13.96,38.04
			c8.56,3.82,17.7,7,25.09,13.26c2.51,4.92-1.11,7.03-4.27,9.36c-6.84,0-13.67,0-20.51,0
			C1138.73,1071.5,1128.17,1073.26,1120.49,1068.51z"/>
		<path class="st3" d="M1120.49,1068.51c9.97-0.43,21.91-5.29,24.56,10.84c-5.47,0-10.94,0-16.4,0
			C1126.61,1075.21,1120.46,1074.18,1120.49,1068.51z"/>
		<path class="st4" d="M1165.55,1079.34c1.29-2.69,2.59-5.38,3.88-8.08c1.66-3.74,3.84-6.45,8.48-4.25
			c4.78,2.99,3.84,7.84,4.04,12.32C1176.48,1079.34,1171.02,1079.34,1165.55,1079.34z"/>
		<path class="st5" d="M1280.49-55.3c-1.74,15.09-13.43,24.38-22.24,34.58c-10.14,11.75-15.73,32.2-8.54,46.88
			c4.97,10.15-5.55,37.08-17.22,39.75c-10.23,2.34-13.99,6.09-15.3,16.74c-0.95,7.7-2.75,16.99-16.02,18.76
			c-12.17,1.63-5.69,12.12-2.8,19.33c1.01,1.61,1.13,3.29,0.35,5.03c-2.87,4.37-6.89,5.28-11.67,3.87c-1.6-0.52-3.13-1.27-4.53-2.19
			c-1.26-1-2.29-2.24-3.1-3.62c-0.76-1.32-1.46-2.7-2.21-4.02c-1.43-1.85-3.29-3.22-5.29-4.48c-1.48-0.95-2.71-2.12-3.77-3.51
			c-4.98-13.35,4.4-18.44,13.79-22.66c7.76-3.49,13.61-7.54,16.11-16.42c3.32-11.77,8.54-22.43,21.37-27.46
			c6.1-2.39,7.75-8.9,9.09-14.91c-4.1-15.47-6.89-30.84,3.5-45.16c3.04-3.17,4.79-6.96,5.24-11.37
			c5.75-14.6,11.28-29.38,28.42-34.66C1271.03-60.13,1275.6-57.29,1280.49-55.3z"/>
		<path class="st6" d="M1387.21-325.55c-18.98,13.45-14.1,28.88-3.71,44.76c6.89,9,3.18,18.8,2.19,28.4
			c-1.53,5.86-3.03,11.82,0.21,17.51c7.5,13.17,6.33,26.8,2.61,40.65c-22,6.15-28.61,29.11-45.12,41.31
			c-1.85,0.74-3.73,0.88-5.66,0.38c-3.49-2.35-5.24-5.76-6.02-9.77c-0.05-1.98,0.39-3.86,1.25-5.65
			c12.01-11.66,18.27-28.01,33.34-37.63c10.61-6.78,1.99-17.16-0.34-25.89c-2.68-8.16-1.78-16.27,0.96-24.12
			c3.1-8.85,1.95-17.44-0.38-26.14c-10.37-38.68-4.3-52.2,32.26-72.09c12.96-3.48,24.17-0.14,32.25,10.3
			c7.52,9.71,17.43,16.35,26.78,23.82c2.81,3.33,5.52,6.71,2.92,11.42c-4.57,3.5-9.58,3.57-14.81,1.9
			c-6.53-3.48-13.68-7.06-17.28-13.42C1416.63-341.08,1405.46-336.83,1387.21-325.55z"/>
		<path class="st7" d="M1333.99-161.79c3.13,1.94,3.77,5.04,3.89,8.37c1.98,7.29-2.36,10.45-8.25,12.6
			c-9.84,4.51-27.75-0.49-23.88,20.2c-2.8,5.61-6.94,10.43-9.5,16.18c-1.58,3.18-3.23,6.33-4.82,9.5c-3.62,6.17-5.36,13.1-7.94,19.7
			c-4.63,5.77-10.16,10.67-15.41,15.84c-13.87,8.91-21.67,22.58-28.82,36.75c-0.12,3.2-2.5,5.37-3.65,8.1
			c-8.1,14.97-8.09,30.06-0.73,45.28c-2.44,2-5.2,2.93-8.37,2.51c-6.67-2.24-8.37-8.02-9.96-13.89
			c-1.16-12.14,2.18-24.32-0.28-36.48c0.66-19.64,22.58-26.47,26.61-44.12c18.63-19.95,35.59-40.83,39.72-69.1
			c2.94-20.07,21.03-17.98,34.12-23.18C1322.8-155.62,1327.19-161.24,1333.99-161.79z"/>
		<path class="st8" d="M1399.32-350.6c-3.88,7.94-13.72,7.68-18.99,13.88c-12.73,14.97-22.32,30.25-9.84,50.25
			c11.39,18.25-4.72,36.54-0.44,54.89c-6.34,2.95-10.89-1.18-15.76-4c-1.6-6.81-5.66-13.61-0.02-20.43
			c7.22-2.19,10.58-5.64,4.02-12.32c-7.28-21.05-18.31-44.28-7.98-64.19c6.82-13.14,21.62-27.6,40.79-30.05
			C1403.12-364.93,1404.36-359.91,1399.32-350.6z"/>
		<path class="st9" d="M1444.42-350.25c23.39-0.9,42.39-18.12,66.37-17.63c6.17,0.12,7.46-7.31,8.22-12.65
			c1.35-9.41-3.07-17.65-10.27-22.09c-7.25-4.48-14.31-7.67-14.99-17.26c1.2-1.42,2.71-2.37,4.47-2.91
			c4.81-1.35,9.37,4.55,14.33,0.48c7.76-0.51,12.56,4.37,17.35,9.31c13.9,14.8,11.59,32.35,7.68,49.71
			c-3.11,13.85-15.46,19.85-35.49,18.74c-10.19-4.03-19.33-3.58-26.24,6.27c-3.84,3.31-8.46,4.73-13.35,5.5
			c-1.99,0.33-3.99,0.53-6,0.71C1437.31-334.6,1435.29-337.65,1444.42-350.25z"/>
		<path class="st10" d="M1083.51,722.99c4.69,26.25,24.04,42.14,41.24,59.99c14.98,15.55,11.62,28.05-0.93,41.25
			c-9.73,10.24-7.77-2.77-11.55-2.95c-4.63,6.85-11.8,9.48-16.72,2.87c-5.13-6.88,2.93-11.94,7.11-16.96
			c8.55-10.99-1.63-17.44-6.96-23.73c-6.4-7.55-15.51-12.51-24.66-16.75c-17.05-11.06-2.97-23.39-1.47-35.24
			C1073.02,726.7,1077.48,723.55,1083.51,722.99z"/>
		<path class="st11" d="M1321.16-149.92c-5.11,4.16-11.53,3.23-17.31,4.74c-8.88,2.32-13.99,6.28-16.48,18.34
			c-5.62,27.19-17.32,52.81-43.87,67.55c-3.31-5.02-4.31-10.62-4.13-16.51c17.16-18.6,33.88-37.48,32.88-65.16
			c-0.41-11.21,10.32-11.06,15.79-16.3c5.97-5.72,14.33-5.14,21.07-8.71C1310.36-158.55,1322.01-158.92,1321.16-149.92z"/>
		<path class="st12" d="M1071.34,763.68c23.2,1.95,32.74,21.05,43.43,36.96c5.35,7.96-5.14,7.89-10.74,8.6
			c-20.59,14.19-5.68,29.64-1.52,44.68c1.3,4.45,1.75,9.25,4.01,13.31c8.81,15.84,4.73,27.82-10.48,36.72
			c-2.67,1.45-5.34,2.9-8.02,4.34c-2.62-1.72-3.58-4.3-3.84-7.26c-1.39-8.37,9.35-13.33,6.18-22.19
			c-2.97-8.59-6.45-16.95-10.27-25.18c-3.33-19.01-15.34-38.67,5.35-55.72c4.32-3.56,2.44-8.81-3.01-11.32
			c-5.44-2.51-11.92-2.94-15.99-8.17c-1.11-1.73-1.72-3.62-1.93-5.65C1064.88,768.35,1066.89,765.1,1071.34,763.68z"/>
		<path class="st13" d="M1013.89,534.69c-16.05,6.46-25.76,18.07-30.08,34.89c-1.69,6.58-5.15,12.55,1.26,18.27
			c2.37,6.41,0.05,11.07-5.46,14.53c-22.89-2.63-28-12.9-19.34-38.75c7.97-8.87,7.99-21.23,13.98-31.27
			c12.99-21.77,12.31-22.17,35.68-12.06C1013.96,524.35,1016.61,528.79,1013.89,534.69z"/>
		<path class="st5" d="M1083.51,722.99c-2.33,5.45-6.49,8.14-12.4,8.19c-18.13-6.37-7.74-19.7-7.51-30.55
			c7.08-6.43,0.06-11.33-1.88-16.81c10.77-10.98,11.41-26.39,17.32-39.52c7.97-2.69,14.76-0.44,20.81,4.94
			C1098.36,674.7,1082.36,696.95,1083.51,722.99z"/>
		<path class="st14" d="M1177.92,1067.02c-2.83,1.42-5.65,2.83-8.48,4.25c-16.45-0.15-28.77-11.92-44.44-15.57
			c-15.94-3.71-16.53-16.69-4.25-28.42c2.87-2.75,5.06-6.21,7.56-9.35c4.49-2.02,6.92,0.26,8.61,4.11
			c3.31,6.45-1.54,14.45,3.93,20.49c0,0,0.94,1.43,0.96,1.42c0.01-0.01-0.77,1.49-0.77,1.49s1.49-0.79,1.49-0.79
			c0.92-0.65,1.79-1.35,2.61-2.12C1157.02,1049.4,1173.27,1050.47,1177.92,1067.02z"/>
		<path class="st15" d="M1144.99,231.39c18.11-12.85,13.52-35.33,21.11-52.69c3.14-7.17,7.8-11.33,11.66-16.92
			c5.94-2.4,10.28-0.12,13.75,4.7c-6.01,33.79-14.17,66.64-40.86,91.21C1135.86,251.7,1146.09,240.33,1144.99,231.39z"/>
		<path class="st11" d="M1354.29-235.58c5.72-0.5,10.93,1.05,15.77,4.01c12.57,17.05,8.87,28.72-10.6,37.49
			c-12.03,5.42-8.98,25.95-25.57,28.27c-7.19,1.73-12.94,1.31-12.52-8.35c9.73-11.31,19.48-22.61,29.19-33.93
			C1357.72-216.44,1359.24-225.58,1354.29-235.58z"/>
		<path class="st16" d="M1013.89,534.69c-1.41-4.2-2.81-8.39-4.22-12.59c-0.71-6.31,4.3-6.41,7.83-5.94
			c15.57,2.11,28.92-4.3,42.5-10.14c9.4-2.23,17.52-12.22,28.52-4.75c1.55,3.07,1.5,5.97-0.89,8.64
			c-6.52,22.35-27.96,20.93-44.28,26.05C1034.64,538.69,1023.56,538.68,1013.89,534.69z"/>
		<path class="st5" d="M1444.42-350.25c-6.39,14.56,1.06,15.3,12.28,12.28c4.98,5.57,5.73,11.7,2.48,18.38
			c-0.76,0.8-1.53,1.59-2.31,2.38c-10.43-3.28-19.45-8.55-25.2-18.22c-7.38-12.4-18.36-16.93-32.35-15.17
			c1.76-7.08-2.75-9.85-8.22-11.98C1411.19-374.55,1428.22-370.62,1444.42-350.25z"/>
		<path class="st14" d="M1538.77-342.03c0.71,9.34-3.17,14.45-12.62,17.19c-15.15,4.39-29.86,10.3-44.75,15.56
			c-2.47,3-5.19,2.51-8.02,0.6c-0.98-1.19-1.52-2.56-1.65-4.08c0.24-2.28-0.28-4.39-1.62-6.35c-0.84-1.52-1.43-3.08-1.83-4.76
			c2.75-17.26,19.52-12.36,28.95-15.31c13.23-4.13,26.48-15.32,42.26-8.15C1540.3-345.41,1540.06-343.65,1538.77-342.03z"/>
		<path class="st11" d="M980.99,600.08c1.36-4.07,2.72-8.15,4.08-12.22c27.47,12.88,58.05,4.1,86.19,12.36
			c-2.13,12.4-2.85,13.17-17.29,12.07c-10.5-0.8-21.35-4.17-28.71,7.16c-13.27,9.17-20.41-7.25-31.47-7.45
			c-4.58-1.76-9.33-3.21-13.06-6.63C979.58,603.55,979.62,601.78,980.99,600.08z"/>
		<path class="st17" d="M1140.76,112.48c-4.55-13.71,15.82-41.27,29.83-39.09c4.64,0.72,7.63-0.58,11.28-1.75
			c3.69-3.87,4.97-11.7,13.25-8.08c4.38,13.5-1.68,22.23-13.86,26.41c-17.75,6.09-21.56,18.07-16.91,34.62
			c0.7,2.91,0.73,5.81-0.1,8.71c-1.38,2.87-3.16,5.03-6.82,3.9c-2.72-2.67-5.44-5.34-8.16-8
			C1141.29,126.24,1141.16,119.29,1140.76,112.48z"/>
		<path class="st4" d="M1096.03,903.95c16.63-15.51,4.19-33.09,3.55-49.83c1.65-4,4.39-6.9,8.56-8.31
			c8.18,12.89,15.94,25.88,18.33,41.43c2.3,14.97-13.56,17.16-19.2,26.81C1104.4,919,1099.06,908.73,1096.03,903.95z"/>
		<path class="st11" d="M1104,317.41c13.23-10.86,24.55-22.09,17.25-41.91c-2.04-5.54,2.48-11.39,7.31-15.47
			c5.12,2.27,10.44,4.15,14.9,7.72c-2.41,17.15,6.17,35.71-6.55,51.57C1125.94,318.92,1114.22,331.02,1104,317.41z"/>
		<path class="st18" d="M1194.62,63.54c-4.25,2.7-8.5,5.41-12.76,8.11c-6.27-14.64-1.36-25.44,11-34.38
			c6.42-4.65,13.29-9.57,13.72-18.85c4.12-2.02,8.39,0.45,12.56-0.41c2.57,4.25,5.13,8.5,7.7,12.75c1.8,3.52,0.82,7.52-1.78,9.12
			C1214.01,46.66,1205.69,56.86,1194.62,63.54z"/>
		<path class="st19" d="M1387.21-325.55c9.72-18.59,30.7-22.41,38.95-5.68c4.69,9.52,16.28,11.45,18.29,21.9
			c-1.48,9.3-6.77,7.29-12.43,4.17c-6.26,0.2-13.48-0.17-15.22-6.9C1412.29-329.47,1399.73-326.95,1387.21-325.55z"/>
		<path class="st18" d="M1239.37-75.81c5.94,4.36,7.61,9.8,4.13,16.51c0.57,9.32-0.81,16.96-10.62,22.1
			c-6.87,3.6-10.44,11.47-13.5,18.81c-2.57,2.71-1.92,8.48-7.25,8.37c-2.04-0.05-2.62-2.38-1.56-4.45
			C1210.61-39.39,1223.59-58.25,1239.37-75.81z"/>
		<path class="st16" d="M1509.62-439.99c32.78,0.69,54.22,23.64,45.47,48.67c-3.49,2.18-7.47-0.67-11.03,1.07
			c-6.66-5-6.62-14.25-12.6-19.68C1526.57-421.69,1505.97-422.06,1509.62-439.99z"/>
		<path class="st20" d="M1341.58-153.82c13.97-14.79,18.8-39.6,45.03-40.92c2.88-2.25,5.73-2.42,8.54,0.15
			c-0.16,3.98,0.79,9.09-3.42,10.88c-10.66,4.51-18.98,9.34-21.26,22.83c-1.41,8.34-13.73,6.83-20.19,11.49
			C1345.54-147.26,1343.26-149.94,1341.58-153.82z"/>
		<path class="st5" d="M1395.15-194.6c-2.84-0.05-5.69-0.1-8.53-0.14c-1.3-14.81,3.05-30.41-8.5-43.69
			c-3.85-4.42,0.04-10.03,5.19-13.13c2.73-2.35,3.98-7.48,9.31-4.9c1.8,2.6,5.19,4.72,2.6,8.63c1.64,13.77,5.48,27.15,5.28,41.35
			C1400.43-200.6,1397.34-198.33,1395.15-194.6z"/>
		<path class="st16" d="M1136.91,1022.03c-2.87-1.37-5.73-2.74-8.6-4.11c-3.67-13.77-14.2-25.53-12.07-41
			c2.74-2.74,0.62-10.39,8.27-8.16c15.28,13.09,10.65,33.81,18.78,49.68C1143.33,1018.53,1139.12,1020.79,1136.91,1022.03z"/>
		<path class="st21" d="M1099.85,649.25c-7.23,0.47-14.2-0.41-20.61-4.06c-17.42-2.9-12.55-16.1-12.59-27.07
			c2.38-6.2,6.58-11.54,8.63-17.92c5.89,0.37,9.47,1.82,10.53,9.25C1087.79,623.47,1091.91,637.14,1099.85,649.25z"/>
		<path class="st22" d="M1104,317.41c10.9,6.73,21.79-4.1,32.69-0.02c0.18,0.63,0.67,1.71,0.49,1.83
			c-12,8.35-18.92,20.13-23.1,33.82c-5.29,1.84-10.09,1.27-14.19-2.81c-4.02-10.91-8.05-21.81-12.07-32.72
			C1093.22,317.79,1098.64,321.48,1104,317.41z"/>
		<path class="st23" d="M1432.01-305.16c4.55-0.18,9.43,0.61,12.43-4.17c5.45-0.03,10.9-0.06,16.35-0.09
			c3.27-3.62,6.71-6.74,12.12-4.24c1.86,3.32,4.96,4.24,8.47,4.38c-10.96,16.1-32.13,24.19-47.41,17.19
			C1428.51-294.59,1423.94-299.51,1432.01-305.16z"/>
		<path class="st4" d="M1161.63,296.76c10.6,22,3.5,39.87-16.38,41.27c-6.23,1.19-6.67-3.33-7.47-7.5
			c3.36-10.35,8.08-20.35,8.45-31.52C1150.5,292.4,1156.02,294.3,1161.63,296.76z"/>
		<path class="st24" d="M1108.15,845.82c-0.21,5.48-3.2,8.11-8.56,8.31c-15.9-24.74-14.74-36.43,4.44-44.89
			c1.72,5.93-9.16,8.04-5.1,13.03c2.32,2.86,8.97,1.7,13.34-0.98C1110.9,829.46,1109.52,837.64,1108.15,845.82z"/>
		<path class="st8" d="M1157.42,137.2c1.37-1.44,2.74-2.88,4.11-4.31c16.57-6.23,26.22,5.33,34.75,15.48
			c4.84,5.75,2.3,14.08-6.53,17.51c-4-1.36-7.99-2.72-11.99-4.09C1176.68,148.88,1155.62,152.48,1157.42,137.2z"/>
		<path class="st8" d="M1087.63,509.92c-0.01-2.78-0.02-5.56-0.04-8.34c4.92-16.32,19.38-19.18,32.95-23.32
			c5.57,1.72,9.89,4.34,8.15,11.31c-5.07,10.15-10.14,19.05-24.7,13.8C1098.66,501.44,1094.55,510.95,1087.63,509.92z"/>
		<path class="st14" d="M1206.87,178.6c-1.64,11.08,7.88,25.05-8.38,32.36c-3.26,2.91-1.86,10.9-9.68,8.88
			c-2.93-1.57-4.93-3.91-6.05-7.04c0.04-23.6,6.04-33.67,21.72-36.47C1205.28,177.08,1206.08,177.84,1206.87,178.6z"/>
		<path class="st8" d="M1538.77-342.03c-0.04-1.51-0.09-3.02-0.13-4.53c-2.15-12.13-1.4-23.61,7.34-33.35
			c3.25-1.55,6.35-1.46,9.23,0.91c14.79,13.17-1.26,24.28-3.16,36.07C1550.81-335.23,1543.5-340.26,1538.77-342.03z"/>
		<path class="st19" d="M1132.8,423.85c8.97,1.44,9.39,6.33,5.1,12.91c-2.5,3.83-7.02,7.32-1.09,11.86
			c9.05,11.91-5.41,16.74-7.62,25.26c-2.98,1.77-6.01,1.85-9.09,0.29c-4.63-13.96-4.9-27.9,0.22-41.83
			C1123.51,428.1,1127.17,424.52,1132.8,423.85z"/>
		<path class="st16" d="M1210.57-14.46c5.42,4.26,4.92-4.74,8.8-3.92c7.04,12.18,1.99,24.28-0.23,36.39
			c-3.86,10.12-8.24,4.26-12.55,0.4C1203.02,6.86,1203.66-4.18,1210.57-14.46z"/>
		<path class="st5" d="M1222.96,141.32c5.67,14.62-3.77,23.54-12.39,32.77c-1.55,1.34-3.34,1.9-5.38,1.68
			c-16.23-10.64-4.68-22.18-1.1-33.47c1.27-1.53,2.92-2.48,4.84-2.96C1213.77,138.78,1218.32,140.32,1222.96,141.32z"/>
		<path class="st10" d="M1108.03,956.51c-13.3-3.81-11.92-14.67-11.97-24.85c22.58-21.33,14.79,6.3,20.27,12.54
			C1117.06,950.66,1117.55,956.95,1108.03,956.51z"/>
		<path class="st25" d="M1186.06,215.03c1.36,1.37,2.72,2.74,4.07,4.11c3.39,1.83,6.54,3.77,4.19,8.44
			c1.71,15.37-12.45,17.34-20.63,24.35c-2.98-2.17-8.29-0.66-9.36-5.88C1173.06,236.75,1168.23,217.97,1186.06,215.03z"/>
		<path class="st15" d="M1140.83,329.38c0.17,3.54,0.9,6.8,4.41,8.64c-3.76,6.35,1.25,14.47-4.15,20.48
			c-7.94,2.6-15.01,2.26-19.83-5.82C1119.38,331.65,1122.85,327.52,1140.83,329.38z"/>
		<path class="st11" d="M1141.02,268.52c-4.15-2.83-8.31-5.65-12.46-8.48c10.6-6.62,3.52-23.35,16.43-28.64
			c9.2,6.84-0.21,16.99,4.41,24.65c3.99,5.37,1.41,9.33-2.79,12.93C1144.67,269.87,1142.8,269.72,1141.02,268.52z"/>
		<path class="st26" d="M1075.27,600.21c0.7,6.09-1.47,11.45-4.25,16.65c-16.29,6.16-32.58,3.62-48.87,0
			c5.27-14.36,16.81-12.07,28.05-10.5c7.96,1.12,17.31,7.08,21.06-6.15C1072.6,600.13,1073.93,600.13,1075.27,600.21z"/>
		<path class="st27" d="M1132.8,379.1c5.15,6.95-1.73,10.83-4.06,15.87c1.8,3.75-0.65,5.22-3.49,6.49
			c-2.02,0.24-3.96-0.09-5.82-0.89c-12.95-21.51-11.88-27.33,6.25-33.87c3.2,0.28,6.07,1.32,8.34,3.69
			C1135.39,373.54,1134.99,376.45,1132.8,379.1z"/>
		<path class="st13" d="M1161.63,296.76c-3.91,4.95-8-0.93-11.97,0.19c-9.1-10.11-9.65-19.63,1.94-28.35
			c3.65-1.51,7.31-2.93,10.96,0c1.4,2.9,1.3,5.6-1.06,8C1166.03,283.29,1166,290.01,1161.63,296.76z"/>
		<path class="st5" d="M1124.29,399.41c1.48-1.48,2.97-2.95,4.45-4.44c10.09,8.4,17.63,17.16,4.06,28.88
			c-2.59,2.75-5.18,5.51-7.77,8.27c-6.45-5.23-6.16-12.47-5.96-19.71C1119.26,407.46,1121,403.12,1124.29,399.41z"/>
		<path class="st4" d="M1341.58-153.82c2.9,1.47,5.8,2.94,8.7,4.42c-0.57,7.87-0.69,16.91-9.83,19.3
			c-6.99,1.83-10.24-4.03-10.83-10.72c2.75-4.2,5.5-8.39,8.25-12.59C1339.11-153.59,1340.34-153.72,1341.58-153.82z"/>
		<path class="st20" d="M1108.03,956.51c2.77-4.1,5.53-8.21,8.3-12.31c7.08,6.74,12.44,14.05,8.18,24.56
			c-2.76,2.72-5.51,5.44-8.27,8.16C1114.92,969.55,1101.88,966.88,1108.03,956.51z"/>
		<path class="st18" d="M1280.83-75.7c-1.01-8.19,1.44-15.11,7.58-20.69c6.88-1.32,9.73,1.4,8.4,8.33
			c1.93,7.75,6.51,16.82-8.11,16.4C1284.1-69.18,1282.41-72.34,1280.83-75.7z"/>
		<path class="st8" d="M1280.83-75.7c2.62,1.35,5.25,2.7,7.87,4.05c-3.16,5.24,2.1,14.69-8.21,16.35c-5.6,3.04-10.01,2.53-12.4-4.1
			C1266.29-69.55,1272.13-73.74,1280.83-75.7z"/>
		<path class="st28" d="M1509.62-439.99c3.66,13.49,19.56,16.26,24.86,28.32c-2.88,2.47-5.81,2.27-8.78,0.18
			c-5.23-2.78-8.66-8.92-15.68-8.34c-3.3-2.75-6.54-5.58-10.11-7.99c-2.73-2.26-5.3-4.64-5.81-8.43
			C1497.97-442.86,1504.2-439.72,1509.62-439.99z"/>
		<path class="st29" d="M1494.09-436.24c2.52,1.49,5.05,2.99,7.57,4.48c2.47,5.2-0.51,8.6-3.92,11.86c-1.33,0-2.66,0-3.99,0.01
			c-1.76-1.96-3.33-5.38-5.3-5.63c-7.71-0.99-18.49-3.08-15.33-11.16C1476.46-445.19,1486.88-438.97,1494.09-436.24z"/>
		<path class="st30" d="M1321.37-174.15c4.17,2.78,8.34,5.56,12.52,8.34c-0.12,1.34-0.09,2.68,0.1,4.02
			c-3.09,5.23-6.66,9.94-12.82,11.88c-5.19-4.48-14.59-5.79-12.06-16.05C1319.08-159.9,1316.28-172.93,1321.37-174.15z"/>
		<path class="st16" d="M1222.96,141.32c-4.25,5.25-8.39,5.04-12.44-0.24c-5.72-2.97-11.3-6.07-12.11-13.45
			c-0.03-0.9-0.06-1.81-0.08-2.71c0.02-1.39,0.04-2.78,0.06-4.16C1210.42,123.02,1219.63,128.66,1222.96,141.32z"/>
		<path class="st3" d="M1390.81-256.44c-3.56-0.01-2.35,7.34-7.51,4.87c-3.53-9.76,2-19.47,0.19-29.22
			c2.54,0.13,5.07,0.25,7.61,0.38c3.21,3.61,1.6,8.01,2.01,12.08C1392.6-264.31,1394.54-259.83,1390.81-256.44z"/>
		<path class="st31" d="M1128.67,473.12c0.06-9.05,10.61-14.61,8.14-24.5c5.34-2.41,8.67-2.02,8.11,5.17
			c-0.66,8.59-6.63,13.63-12.08,19.1c1.02,2.07,0.63,4.29-1.59,4.46C1129.11,477.52,1128.25,475.35,1128.67,473.12z"/>
		<path class="st5" d="M1132.67,370.78c-2.66-0.01-5.32-0.03-7.98-0.04c-1.95-1.76-4.74-2.64-5.71-5.44
			c-0.17-4.94,1.3-8.95,6.26-10.98c5.28,1.39,10.57,2.79,15.85,4.18c-1.38,2.66-2.77,5.31-4.16,7.97
			C1138.12,370.48,1136.66,371.88,1132.67,370.78z"/>
		<path class="st18" d="M1296.81-88.05c-1.62-3.97-4.44-6.72-8.4-8.33c0.34-3.3,0.91-6.49,4.39-8.09c2.02-2.58,3.5-5.91,7.67-5.53
			c2.54,1.04,4.16,2.83,4.62,5.58C1302.01-99.13,1307.23-89.65,1296.81-88.05z"/>
		<path class="st5" d="M1128.67,473.12c1.55,2.89,2.92,2.35,4.18-0.23c6.64,7.55,0.01,11.8-4.15,16.67
			c-1.65-3.98-4.46-6.78-8.49-8.35c-2.25-2.86-1.91-5.55,0.55-8.1C1123.39,473.11,1126.03,473.12,1128.67,473.12z"/>
		<path class="st18" d="M1140.76,112.48c2.84,5.57,5.67,11.14,8.51,16.7C1138.3,130.09,1135.76,125.11,1140.76,112.48z"/>
		<path class="st8" d="M1358.29-268.33c9.77,1.56,9.88,8.31,6.33,14.65c-4.56,8.15-6.75-1.85-10.35-2.32
			C1355.61-260.11,1356.95-264.22,1358.29-268.33z"/>
		<path class="st32" d="M1555.2-379c-2.61-0.02-5.22-0.03-7.83-0.05c-7.55-3.55-7.37-7.52-0.64-11.85c2.56-4.79,5.55-0.87,8.37-0.42
			C1555.13-387.21,1555.16-383.11,1555.2-379z"/>
		<path class="st27" d="M1300.88-108.58c-2.69,1.37-5.39,2.74-8.08,4.11c1.53-7.61,2.32-15.8,12.94-16.15
			c1.16,1.22,2.32,2.44,3.48,3.66C1307.1-113.52,1306.03-109.03,1300.88-108.58z"/>
		<path class="st3" d="M1166.23,247.93c3.17,0.06,5.97,0.81,7.46,4c-4.63,2.87-3.94,7.51-4.01,11.91c-2.87,3.14-6.01,2.69-9.28,0.72
			C1156.63,257.01,1157.49,251.09,1166.23,247.93z"/>
		<path class="st8" d="M1083.47,317.42c-4.12-1.36-8.24,12.81-12.37,0.01C1075.22,309.71,1079.34,308.83,1083.47,317.42z"/>
		<path class="st8" d="M1162.23,263.89c2.48-0.01,4.97-0.03,7.45-0.05c4.53,8.91,0.01,12.01-8.2,12.76
			c-0.03-2.83-0.06-5.66-0.1-8.49C1160.2,266.41,1160.55,265.02,1162.23,263.89z"/>
		<path class="st33" d="M1087.54,898.87c0.16,3.14,0.32,6.28,0.48,9.42c0.05,1.06-0.09,2.09-0.4,3.1
			c-6.25,4.62-8.75-2.06-12.75-4.23c-0.92-1.73-0.94-3.45,0.06-5.17C1078.59,898.76,1082.46,896.4,1087.54,898.87z"/>
		<path class="st14" d="M1194.32,227.57c-1.4-2.81-2.79-5.63-4.19-8.44c2.79-2.72,5.57-5.45,8.36-8.17
			C1198.6,216.87,1203.67,224.03,1194.32,227.57z"/>
		<path class="st8" d="M1343.06-347.95c3.63-1.94,5.64-3.6,7.91-4.08c2.98-0.63,5.28,1.28,4.89,4.31c-0.18,1.39-2.74,3.59-4.04,3.46
			C1349.4-344.49,1347.1-346.13,1343.06-347.95z"/>
		<path class="st8" d="M1300.88-108.58c2.78-2.79,5.56-5.59,8.34-8.39c2.74,5.53,2.56,10.1-4.13,12.54
			C1303.69-105.81,1302.29-107.2,1300.88-108.58z"/>
		<path class="st8" d="M1390.81-256.44c0.12-4.25,0.24-8.51,0.36-12.76c1.57-1.13,2.93-0.93,4.09,0.61
			c-2.89,6.91,7.16,13.85-0.04,20.75C1393.75-250.7,1392.28-253.57,1390.81-256.44z"/>
		<path class="st34" d="M1552.2-197.4c3.96,6.29,3.34,10.74,1.64,16C1550.29-186.01,1547.54-190.05,1552.2-197.4z"/>
		<path class="st11" d="M1132.67,370.78c1.42-1.43,2.84-2.87,4.26-4.31c12.86,8.86-2.75,8.42-4.13,12.63
			C1132.76,376.33,1132.71,373.55,1132.67,370.78z"/>
		<path class="st3" d="M1395.26-268.58c-1.36-0.2-2.73-0.4-4.09-0.6c-0.02-3.75-0.05-7.49-0.07-11.23
			C1395.91-277.67,1395.03-272.93,1395.26-268.58z"/>
		<path class="st3" d="M1145.13,1042.52c-1.4,1.35-2.81,2.69-4.21,4.04l0.04,0.04c-0.03-1.36-0.06-2.72-0.12-4.07
			C1142.27,1042.52,1143.7,1042.52,1145.13,1042.52z"/>
		<path class="st35" d="M1206.19,174.2c1.46-0.04,2.92-0.07,4.38-0.11c-1.23,1.5-2.47,3-3.7,4.51c0,0-0.64-0.86-0.64-0.86
			c-1.2-0.77-1.61-1.55-1.22-2.35C1205.4,174.59,1205.79,174.2,1206.19,174.2z"/>
		<path class="st8" d="M1075.36,923.6c1.9,0.66,5.45,1.33,5.45,1.99c0.03,31.38,31.09,50.47,32.33,81.5
			c0.18,4.51,2.69,8.05-1.24,12.64c-13.65,15.91-13.36,32.19,0.35,48.15c-6.34,3.14-13.26,9.37-19.28,0.87
			c-8.89-12.55-14.73-29.68-6.43-41.27c14.17-19.8,5.61-37.51-4.47-49.59c-12.22-14.65-16.01-28.58-15.08-45.82
			c-0.98-0.86-1.46-1.82-1.43-2.9c0.03-1.13,0.17-1.7,0.42-1.7C1068.36,924.35,1071.71,923.61,1075.36,923.6z"/>
		<path class="st5" d="M1042.37,714.83c-14.66-23.12-12.29-35.8,10.64-54.74c3.46-2.86,4.29-5.14,0.42-7.74
			c-7.38-4.98-12.37-17.38-24.2-9.73c-11.64,7.53-20.91,8.23-27.78-5.58c-3.18-6.03-8.52-11.39-6-19.19
			c11.95-13.02,16.39,12.39,27.57,5.29c10.29-6.53,20.54-6.32,29.8,2.53c4.24,3.94,9.37,6.81,13.38,11.04
			c13.22,21.79,13.12,24.03-2.86,41.52c-5.51,6.04-7.58,12.76-4.46,20.45c4.56,11.21-0.21,16.62-11,18.64
			C1045.74,717.19,1043.9,716.35,1042.37,714.83z"/>
		<path class="st36" d="M993.18,489.6c27.31,17.45,48.81-6.36,72.97-10.76c9.27-1.69,18.32-6.98,25.62-13.92
			c9.9,0.91,5.68,6.88,3.63,11.27c-2,4.28-6.03,7.27-8.9,11.05c-7.84,9.63-18.08,15.46-29.9,18.74
			c-25.27,13.87-51.08,12.89-77.22,2.7c-3.7-2.49-5.6-5.71-4.15-10.28C978.38,489.7,986.38,490.88,993.18,489.6z"/>
		<path class="st37" d="M1054.84,501.87c10.72-3.38,20.02-9.26,28.64-16.31c19.53-9.11,29.24-23.29,24.1-45.53
			c-1.21-5.26-1.01-10.77,0.18-16.13c0.77-9.82-6.43-18.51-4.01-28.56c0.6-12.35-7.54-27.47,10.85-34.2
			c3.31,0.37,4.61,3.08,6.25,5.39c1.27,1.4,2.55,2.81,3.82,4.21c-21.71,6.68-0.39,19.45-4.07,28.69c-0.32,4.64,0.04,9.08,3.89,12.42
			c0.17,6.76,0.34,13.51,0.52,20.27c-8.02,12.98,2.15,27.85-4.27,40.99c-0.18,2.7-0.36,5.4-0.54,8.1
			c-10.87,6.79-21.75,13.58-32.62,20.36c-11.06-2.1-17.46,10.77-28.47,8.85C1055.24,508.8,1052.85,506.43,1054.84,501.87z"/>
		<path class="st8" d="M1067.34,775.72c2.37,1.24,4.62,2.86,7.13,3.64c7.66,2.4,18.6-1.62,20.98,10.88
			c2,10.5-6.79,13.11-12.88,18.06c-13.11,10.65,4.25,22.36-0.59,33.83c-1.28,3.04,1.28,7.69,2.07,11.6
			c-1.29,4.63-1.53,10.35-8.95,8.67c-18.9-16.77-6.26-40.42-12.88-59.99c-1.79-5.3,0.41-11.95,0.78-17.98
			C1062.71,780.66,1063.88,777.62,1067.34,775.72z"/>
		<path class="st11" d="M1075.11,862.39c2.98-2.89,5.96-5.78,8.94-8.67c7.28,6.69,7.05,16.75,11.16,24.86
			c-11.13,4.68-13.61,16.25-19.82,24.85c-0.1,1.25-0.27,2.5-0.51,3.73c-7.09,5.69-1.87,11.02,0.49,16.44
			c-1.81,3.26-4.84,4.06-8.25,4.13c-7.47-0.71-8.51-7.86-12.32-12.24c-0.95-1.64-3.12-4.23-2.68-4.79
			C1063.31,896.25,1072.29,880.8,1075.11,862.39z"/>
		<path class="st24" d="M1107.77,423.9c12.26,30.68,7.34,50.09-15.74,62.96c-3.52,1.96-6.13,2.01-8.54-1.3
			c-3.18-9.26,17.65-8.92,8.28-20.65c11.63-11.88,3.28-27.78,8.27-40.99c1.41-1.32,2.86-1.3,4.34-0.13
			C1105.51,423.75,1106.64,423.79,1107.77,423.9z"/>
		<path class="st9" d="M1116.08,362.07c-8.53,5.71-12.84,12.76-7.27,22.93c3.19,5.83-0.62,8.23-5.05,10.34
			c-4.59,3.33-8.08,13.77-12.62-1.61c-5.07-17.17,0.05-30.18,8.75-43.49c5.32,0.03,10.64,0.07,15.96,0.1
			C1123.86,354.09,1123.37,358.01,1116.08,362.07z"/>
		<path class="st18" d="M948.05,604.24c-24.1-16.08-11.49-34.88-3.95-53.31c4.89-1.91,10.06-0.39,15.07-1.26
			c1.79,0.76,3,2.03,3.61,3.88c1.06,5.19-2.27,9.28-3.4,13.92c-6.34,10.33-0.32,22.12-3.87,32.79
			C953.86,603.16,951.85,605.38,948.05,604.24z"/>
		<path class="st4" d="M1042.37,714.83c1.55,0.01,3.1,0.02,4.65,0.03c8.73,7.15,24.48,11.27,12.05,27.64
			c-7.03,7.73-3.4,19.25-9.64,27.27c-1.86,2.23-3.86,4.06-7.04,2.41C1031.32,753.07,1034.33,733.95,1042.37,714.83z"/>
		<path class="st13" d="M948.22,534.55c-1.4-13.44,17.9-15.13,16.33-28.67c9.62-0.74,11.53,6.69,14.21,13.33
			c-4.18,11.65-6.96,24.11-18.1,31.83l-0.29-0.19C952.08,548.56,952.54,539.77,948.22,534.55z"/>
		<path class="st5" d="M948.05,604.24c1.42-1.41,2.84-2.82,4.26-4.23c9.94-6.06,15.5,6.7,24.3,5.61c2.63,1.67,4.93,3.65,6.28,6.55
			c0.85,3.21,0.44,6.13-1.98,8.58c-1.28-0.05-2.55-0.08-3.83-0.08c-5.56,5.43-11.15,2.69-16.75,0.09
			C948.97,620.64,945.6,614.6,948.05,604.24z"/>
		<path class="st5" d="M980.91,620.76c0.03-2.68,0.06-5.35,0.08-8.03c3.82-2.46,8.01-2.06,12.22-1.6c2.51,1.19,4.03,3.07,4.16,5.92
			c1.36,6.67,2.72,13.33,4.07,20C994.46,631.8,981.35,634.25,980.91,620.76z"/>
		<path class="st38" d="M993.18,489.6c-5.39,2.75-10.77,5.5-16.16,8.25c-1.58,1.28-3.08,1.26-4.49-0.27
			c0.68-4.53,0.16-9.79,2.36-13.41c2.69-4.44,8.02-7.27,13.74-6.11C995.48,479.45,988.51,486.94,993.18,489.6z"/>
		<path class="st8" d="M1042.39,772.18c1.41-1.39,2.82-2.78,4.23-4.17c2.95-2.23,7.4,2.45,9.87-2.15c5.28-0.95,8.59,1.53,10.7,6.09
			c0.04,1.25,0.09,2.51,0.14,3.76c-0.28,3.47-0.95,6.76-4.33,8.7C1051.92,787.42,1048.31,777.88,1042.39,772.18z"/>
		<path class="st39" d="M960.54,505.74c-9.17-3.9-16.63-9.03-14.96-23.64c8.54,5.77,15.83,10.7,23.13,15.63
			C970.95,505.45,962.6,502.39,960.54,505.74z"/>
		<path class="st40" d="M960.54,505.74c2.72-2.67,5.44-5.34,8.17-8.01c1.28-0.07,2.55-0.12,3.83-0.14c1.49,0.09,2.99,0.17,4.49,0.26
			c0.03,3.32,0.86,6.23,3.96,8.03c2.98,5.45,5.53,10.76-3.87,12.31c-4.19-4.1-8.38-8.21-12.56-12.31
			C963.21,505.85,961.87,505.8,960.54,505.74z"/>
		<path class="st13" d="M948.22,534.55c7.29,3.03,8.91,10.26,12.14,16.31c-5.4,4.02-10.8,8.32-16.26,0.08
			C945.47,545.47,946.84,540.01,948.22,534.55z"/>
		<path class="st16" d="M960.33,620.76c5.56-4.46,11.17,1.68,16.75-0.09c-0.88,8.2-6.85,8.13-12.93,8.02
			C957.51,628.58,959.28,624.52,960.33,620.76z"/>
		<path class="st21" d="M1054.79,915.5c5.53,2.65,9.61,6.76,12.32,12.24c-0.04,1.44-0.08,2.88-0.12,4.32
			C1056.65,931.15,1054.4,924.29,1054.79,915.5z"/>
		<path class="st35" d="M1104.37,423.79c-1.45,0.04-2.9,0.08-4.34,0.13C1101.39,420.83,1102.85,421.31,1104.37,423.79z"/>
		<path class="st41" d="M1206.19,174.2c0.18,1.18,0.2,2.36,0.04,3.54c-18.84,5.89-18.57,22.1-20.18,37.29
			c-11.06,8.29-7.4,25.44-19.83,32.9c-3.1,4.88-5.18,10.01-4,15.96c-0.28,1.41-0.55,2.82-0.83,4.22c-2.75,1.33-5.51,2.67-8.26,4
			c-2.39-2.11-6.56-0.46-8.3-3.92c1.52-4.05,3.05-8.1,4.58-12.16c20.98-26.7,29.76-58.84,40.35-90.17
			c6.13-17.28-0.05-24.5-28.22-32.98c-0.21-2.58-0.41-5.17-0.62-7.75c2.02-4.81,5.54-8.11,10.29-10.14c1.59-0.18,3.2-0.22,4.79-0.12
			c0.71,0.31,1.44,0.63,2.15,0.93c0.96,1.19,1.53,2.56,1.62,4.09c0.45,1.73-1.07,4.33,2.12,4.9c1.36-0.05,2.71,0,4.06,0.14
			c2.91,5.53,7.82,8.24,13.65,9.67c3.2,1.31,5.69,3.42,7.23,6.56C1209.78,152.24,1192.44,162.92,1206.19,174.2z"/>
		<path class="st42" d="M1173.75,116.72c-4.28,2.8-6.4,8.88-12.82,8.42c-7.78-14.63-4.12-30.62,10.63-35.2
			c14.28-4.43,21.28-12.44,23.07-26.4c5.24-16.33,24.63-18.77,32.22-32.78c2.68-0.01,5.36-0.02,8.03-0.03
			c-2.82,10.76-7.63,19.79-19.72,22.4c-10.96,2.37-9.66,13.42-11.62,20.04c-3.28,11.13-8.24,17-19.24,20.45
			c-7.86,2.47-20.36,5.4-10.57,19c1.39,0.91,1.85,1.81,1.4,2.72C1174.67,116.26,1174.21,116.72,1173.75,116.72z"/>
		<path class="st43" d="M1198.4,137.5c-9.86,1.45-10.97-5.73-12.45-12.57c4.12,2.4,8.25,2.56,12.36-0.01c0,0,0.05,0.01,0.05,0.01
			C1201.04,129.11,1201.49,133.3,1198.4,137.5z"/>
		<path class="st3" d="M1235.61-14.55c-4.8-5.41,1.92-5.64,3.65-8.1C1245.53-16.59,1240.99-15.38,1235.61-14.55z"/>
		<path class="st3" d="M1181.9,124.8c-5.76,3.13-3.02-1.95-3.66-3.77c1.2-2.15,2.42-2.06,3.67-0.04
			C1181.9,122.26,1181.9,123.53,1181.9,124.8z"/>
		<path class="st35" d="M1181.91,120.99l-1.84-0.06c0,0-1.83,0.1-1.83,0.1c-0.16-1.4-0.33-2.8-0.5-4.2c1.28-1.6,2.66-1.69,4.14-0.27
			C1181.89,118.03,1181.9,119.51,1181.91,120.99z"/>
		<path class="st3" d="M1181.88,116.55c-1.38,0.09-2.76,0.18-4.14,0.27c0,0,0.11-0.1,0.11-0.1c-1.08-0.91-1.44-1.83-1.07-2.74
			c0.36-0.91,0.72-1.36,1.08-1.36C1179.2,113.93,1180.54,115.24,1181.88,116.55z"/>
		<path class="st35" d="M1177.86,112.62c0,1.36-0.01,2.73-0.01,4.1c-1.37,0-2.73,0-4.1,0c0-1.37,0-2.73-0.01-4.09
			C1175.11,112.62,1176.48,112.62,1177.86,112.62z"/>
		<path class="st44" d="M1472.92-313.65c-4.04,1.41-8.08,2.83-12.12,4.24c-1.31-2.6-2.62-5.2-3.92-7.8c0,0-0.25-1.2-0.25-1.2
			c4.89-2.68-1.13-11.98,7.53-12.38c4.67,3.3,4.07,9.9,8.4,13.42l1.37,0.02c0.45,1.48,0.16,2.8-0.86,3.97L1472.92-313.65z"/>
		<path class="st45" d="M1472.55-317.38c-8.17-1-7.49-7.5-8.18-13.15c-2.35-1.88-6.89-2.88-2.9-7.27c4.18-0.5,8.83,0.43,11.75-3.86
			c9.76-2.2,19.14-5.72,28.73-8.5c12.04,7.12,23.7-0.61,28.01-7.81c6.26-10.44,7.84-24.7,4.21-37.63
			c-1.58-5.64-5.57-10.6-8.47-15.87c2.92-0.06,5.85-0.12,8.77-0.18c9.07,3.99,6.88,14.6,12.25,20.76
			c-2.06,4.07-2.42,8.05,0.64,11.85c-2.91,10.83-5.82,21.67-8.73,32.5c-23.36,0.52-42.46,16.56-65.57,18.34
			C1472.61-328.17,1472.71-321.14,1472.55-317.38z"/>
		<path class="st46" d="M1501.95-350.17c-8.52,6.4-16.4,14.94-28.73,8.5C1480.46-352.38,1490.4-354,1501.95-350.17z"/>
		<path class="st47" d="M1497.74-419.9c1.31-3.95,2.62-7.91,3.93-11.86c5.98,1.75,8.12,6.17,8.34,11.94
			C1505.89-415.34,1501.84-421.14,1497.74-419.9z"/>
		<path class="st48" d="M1461.47-337.8c0.97,2.43,1.94,4.85,2.9,7.28c-4.63,2.74-1.72,10.28-7.75,12.12
			c0.03-6.53,0.05-13.05,0.08-19.57C1458.29-337.92,1459.88-337.86,1461.47-337.8z"/>
		<path class="st49" d="M1067.2,771.96c-4.06-1.43-8.13-2.86-12.19-4.29c-3.76-9.43-3.79-18.82,0.24-28.19
			c4.39-2.68,8.9-6.07,2.51-10.46c-5.4-3.71-8.64-8.32-10.74-14.16c3.11-4.07,15.74-2.86,6.62-13.74
			c-7.35-8.77-1.78-18.91,4.87-23.25c20.17-13.16,12.85-26.77,3.38-41.37c-2.81-4.22-5.39-8.75-11.57-8.21
			c-4.86-1.62-8.71-8.95-14.29-5.1c-15.26,10.54-26.37-0.55-38.64-6.16c-1.41-1.45-2.82-2.9-4.22-4.34c-1.2-1.66-1.2-3.28,0.19-4.84
			c11.77-3.93,17.13,12.6,28.8,9.01c16.29-4.89,32.58-2.43,48.87,0c1.93,9.68-4.17,21.68,8.21,28.33
			c3.59,17.18-1.53,30.93-16.18,40.92c0.83,4.27,3.52,7.93,4.04,12.3c3.14,10.7-7.83,23.13,4.02,32.77
			c3.88,6.55,2.11,14.19-2.01,18.08c-7.73,7.28,1.24,9.79,2.25,14.42C1069.96,766.44,1068.58,769.2,1067.2,771.96z"/>
		<path class="st50" d="M1075.39,903.44c0.74-12.96-1.07-27.95,19.83-24.85c6.26,10.09-7.72,12.55-7.68,20.29
			C1083.49,900.39,1079.44,901.92,1075.39,903.44z"/>
		<path class="st51" d="M977.11,518.19c4.57-3.07,3.77-7.84,3.87-12.31c25.15,8.35,49.87,8.97,73.86-4.01
			c1.43,2.85,2.85,5.7,4.28,8.55c-14.48,12.37-32.14,11.28-49.46,11.68c-23.73-1.69-30.86,3.52-36.54,28.31
			c-1.29,5.65-3.05,10.08-8.05,12.99c-2.89,2.21-5.74,2.38-8.53-0.19c1.37-4.06,2.73-8.12,4.1-12.18
			C964.16,539.1,969.46,528.06,977.11,518.19z"/>
		<path class="st6" d="M956.55,563.22c2.84,0.06,5.68,0.12,8.53,0.18c-7.72,25.76-5.65,30.53,15.92,36.67
			c0.06,1.21,0.15,2.42,0.27,3.63c0.88,4.15-0.26,6.28-4.91,4.9c-10.12,3.01-15.64-6.8-24.04-8.6
			C953.01,587.66,949.18,574.8,956.55,563.22z"/>
		<path class="st3" d="M1067.08,698.41c-8.77-1.67-9.46-5.98-4.04-12.3c4.02,0.27,8.41,0.72,9.52,5.25
			C1073.48,695.09,1069.95,696.83,1067.08,698.41z"/>
		<path class="st3" d="M1140.92,1046.55c-0.3,0.56-0.61,1.13-0.91,1.69c0.32-0.55,0.63-1.1,0.95-1.65
			C1140.96,1046.59,1140.92,1046.55,1140.92,1046.55z"/>
		<path class="st3" d="M1473.05-313.4c0.07-1.37,0.35-2.69,0.86-3.97c0.26,1.01,0.65,2.02,0.69,3.04
			C1474.61-314.04,1473.6-313.71,1473.05-313.4z"/>
		<path class="st52" d="M976.35,608.61c1.64-1.63,3.27-3.26,4.91-4.9c4.22,0.83,9.13-0.34,12.09,4.14
			c-0.06,1.61-0.13,3.22-0.19,4.84c-4.05,2.3-8.11,2.1-12.16,0.03C979.45,611.35,977.9,609.98,976.35,608.61z"/>
		<path class="st12" d="M1144.83,268.19c3.31,0.16,6.41,0.77,8.31,3.92c-11.7,6.81-4.51,16.25-3.48,24.84
			c-0.57,11.45,1.02,23.49-8.82,32.43c-16.43,1.3-19.63,10.86-15.6,24.93c-1.45,4.07-2.91,8.14-4.37,12.21
			c-1.59-1.49-3.18-2.97-4.78-4.46c2.96-3.97,2.61-7.88-0.23-11.74c-7.27-19.95,7.86-25.77,20.84-32.94
			c1.44-16.29,2.89-32.59,4.33-48.88C1142.3,268.45,1143.56,268.34,1144.83,268.19z"/>
		<path class="st53" d="M1198.4,137.5c-0.01-4.19-0.02-8.38-0.03-12.57c4.05,5.39,8.1,10.77,12.15,16.16
			c-1.23,0.03-2.46,0.06-3.69,0.09C1204.02,139.94,1201.21,138.72,1198.4,137.5z"/>
		<path class="st3" d="M1124.51,411.85c-8.5-1.89-9.72-6.05-3.89-12.42c1.23,0,2.45-0.01,3.67-0.02
			C1124.36,403.55,1124.43,407.7,1124.51,411.85z"/>
		<path class="st3" d="M1050.31,628.3c2.2-2.46,4.5-6.12,8.07-4.43c5.39,2.55,3.76,8.01,3.51,12.65
			C1056.16,636.4,1052.56,633.29,1050.31,628.3z"/>
		<path class="st35" d="M1055.25,739.48c-0.08,9.4-0.16,18.79-0.24,28.19c-2.6,4.77-5.56,0.9-8.38,0.34
			C1053.6,759.74,1043.41,746.29,1055.25,739.48z"/>
	</g>
	
		<line style="clip-path:url(#SVGID_00000152265788399657090290000009370152946554832278_);fill:none;stroke:#000000;stroke-width:6;stroke-miterlimit:10;" x1="1579" y1="209" x2="1504" y2="878"/>
	
		<line style="clip-path:url(#SVGID_00000152265788399657090290000009370152946554832278_);fill:none;stroke:#000000;stroke-width:6;stroke-miterlimit:10;" x1="1504" y1="878" x2="894" y2="878"/>
	<g style="clip-path:url(#SVGID_00000152265788399657090290000009370152946554832278_);">
		<g>
			<line class="st55" x1="894" y1="878" x2="927.77" y2="684.67"/>
			<g>
				<path d="M934,649c3.3,17.87,10.28,40.55,19.29,55.43l-26.33-15.08l-29.88,5.26C910.58,683.67,924.85,664.7,934,649z"/>
			</g>
		</g>
	</g>
	<g style="clip-path:url(#SVGID_00000152265788399657090290000009370152946554832278_);">
		<g>
			<line class="st56" x1="298" y1="878" x2="304" y2="878"/>
			<line class="st57" x1="315.92" y1="878" x2="882.04" y2="878"/>
			<line class="st56" x1="888" y1="878" x2="894" y2="878"/>
		</g>
	</g>
	<g style="clip-path:url(#SVGID_00000152265788399657090290000009370152946554832278_);">
		<g>
			<line class="st58" x1="298" y1="878" x2="395.83" y2="312.68"/>
			<g>
				<path class="st59" d="M402,277c3.32,17.87,10.35,40.54,19.37,55.4l-26.36-15.04l-29.87,5.31C378.64,311.7,392.87,292.71,402,277
					z"/>
			</g>
		</g>
	</g>
	<g style="clip-path:url(#SVGID_00000152265788399657090290000009370152946554832278_);">
		<text transform="matrix(1 0 0 1 1514.0273 118.6104)" class="st60 st61">Mendoza</text>
	</g>
	<g style="clip-path:url(#SVGID_00000152265788399657090290000009370152946554832278_);">
		<text transform="matrix(1 0 0 1 228.6108 943.7256)" class="st60 st61">Curicó</text>
	</g>
	<polygon style="opacity:0.6;clip-path:url(#SVGID_00000152265788399657090290000009370152946554832278_);fill:#FF0043;" points="
		953,503.08 967.93,549.37 1009.13,523.51 990.81,568.57 1039,575.24 996,597.99 1028.63,634.07 981.07,623.85 982.87,672.46 
		953,634.07 923.13,672.46 924.93,623.85 877.37,634.07 910,597.99 867,575.24 915.19,568.57 896.87,523.51 938.07,549.37 	"/>
</g>
</svg>
